# xmcd CD database file
#
# Track frame offsets:
#	182
#	30777
#	63630
#	100265
#	134560
#	169282
#	196250
#	228420
#	256832
#
# Disc length: 3979 seconds
#
# Revision: 0
# Processed by: cddbd v1.5.1PL0 Copyright (c) Steve Scherf et al.
# Submitted via: CDex 1.51
#
DISCID=750f8909
DTITLE=Marcelo Zarvor  and Peter Epstein - Dualis
DYEAR=1995
DGENRE=New Age
TTITLE0=Baiâo for the Left Wing
TTITLE1=For the New Year
TTITLE2=Olga Beneario
TTITLE3=Abrigo
TTITLE4=Lullaby
TTITLE5=Opening
TTITLE6=Dualism
TTITLE7=The Other Half
TTITLE8=Blues for Roit
EXTD=YEAR: 1995
EXTT0=
EXTT1=
EXTT2=
EXTT3=
EXTT4=
EXTT5=
EXTT6=
EXTT7=
EXTT8=
PLAYORDER=
